<svg width="168" height="33" viewBox="0 0 168 33" fill="none" xmlns="http://www.w3.org/2000/svg">
<path d="M8.6975 32.495C7.1075 32.495 5.6825 31.865 4.4225 30.605C3.1625 29.345 2.1725 27.515 1.4525 25.115C0.7325 22.7 0.3725 19.76 0.3725 16.295C0.3725 12.815 0.7325 9.8675 1.4525 7.4525C2.1725 5.0225 3.1625 3.1775 4.4225 1.9175C5.6825 0.642499 7.1075 0.00499886 8.6975 0.00499886C10.3025 0.00499886 11.735 0.642499 12.995 1.9175C14.27 3.1775 15.275 5.0225 16.01 7.4525C16.745 9.8675 17.1125 12.815 17.1125 16.295C17.1125 19.76 16.745 22.7 16.01 25.115C15.275 27.515 14.27 29.345 12.995 30.605C11.735 31.865 10.3025 32.495 8.6975 32.495ZM8.6975 31.2575C9.0875 31.2575 9.4025 30.935 9.6425 30.29C9.8975 29.63 10.1 28.6625 10.25 27.3875C10.4 26.1125 10.505 24.5525 10.565 22.7075C10.625 20.8475 10.655 18.71 10.655 16.295C10.655 13.88 10.625 11.7425 10.565 9.8825C10.505 8.0225 10.4 6.455 10.25 5.18C10.1 3.89 9.8975 2.915 9.6425 2.255C9.4025 1.58 9.0875 1.2425 8.6975 1.2425C8.3075 1.2425 7.9925 1.58 7.7525 2.255C7.5125 2.915 7.325 3.89 7.19 5.18C7.055 6.455 6.9575 8.0225 6.8975 9.8825C6.8525 11.7425 6.83 13.88 6.83 16.295C6.83 18.71 6.8525 20.8475 6.8975 22.7075C6.9575 24.5525 7.055 26.1125 7.19 27.3875C7.325 28.6625 7.5125 29.63 7.7525 30.29C7.9925 30.935 8.3075 31.2575 8.6975 31.2575ZM21.6765 32V30.7625H24.084V1.7375H23.7465C22.8165 1.7375 22.074 2.015 21.519 2.57C20.979 3.11 20.589 3.875 20.349 4.865C20.124 5.855 20.0115 7.0175 20.0115 8.3525H18.774V0.499998H35.4465V8.3525H34.1865C34.1865 7.0175 34.074 5.855 33.849 4.865C33.624 3.875 33.2415 3.11 32.7015 2.57C32.1615 2.015 31.419 1.7375 30.474 1.7375H30.1365V30.7625H32.634V32H21.6765ZM33.8884 32V30.7625H35.8234L40.4134 0.477499H42.9784L48.2659 30.7625H50.2684V32H39.8734V30.7625H41.6959L39.3334 14.4725H39.4909L37.1284 30.7625H38.7034V32H33.8884ZM37.2409 26.3525V25.1825H41.8084V26.3525H37.2409ZM49.8349 32V30.7625H51.9049V1.7375H49.8349V0.499998H60.0049V1.7375H57.9124V15.1475L64.9324 1.7375H62.9524V0.499998H68.3074V1.7375H66.3949L61.5574 11.03L61.9849 9.59L67.4749 30.7625H69.1174V32H59.7124V30.7625H61.1524L57.3499 15.5525L57.9124 15.8225V30.7625H59.3749V32H49.8349ZM79.4076 32.54C78.7026 32.54 77.9451 32.435 77.1351 32.225C76.3401 32.015 75.5901 31.6175 74.8851 31.0325C74.1801 30.4475 73.6026 29.6075 73.1526 28.5125C72.7176 27.4175 72.5001 25.985 72.5001 24.215V1.7375H70.2951V0.499998H80.9151V1.7375H78.6651V24.485C78.6651 26.615 78.8451 28.22 79.2051 29.3C79.5801 30.38 80.2176 30.92 81.1176 30.92C81.4326 30.92 81.7551 30.845 82.0851 30.695C82.4301 30.545 82.7526 30.2675 83.0526 29.8625C83.3676 29.4575 83.6151 28.8875 83.7951 28.1525C83.9751 27.4025 84.0651 26.4425 84.0651 25.2725V1.7375H82.0626V0.499998H87.4626V1.7375H85.3476V25.1825C85.3476 27.1475 85.1001 28.6625 84.6051 29.7275C84.1101 30.7925 83.4126 31.5275 82.5126 31.9325C81.6276 32.3375 80.5926 32.54 79.4076 32.54ZM97.3696 32V30.7625H99.4846V1.7375H97.3696V0.499998H107.022C107.892 0.499998 108.762 0.627498 109.632 0.8825C110.502 1.1375 111.297 1.55 112.017 2.12C112.752 2.675 113.337 3.4175 113.772 4.3475C114.207 5.2625 114.425 6.3875 114.425 7.7225C114.425 9.0275 114.215 10.145 113.795 11.075C113.39 12.005 112.865 12.77 112.22 13.37C111.59 13.97 110.93 14.4275 110.24 14.7425C109.565 15.0575 108.95 15.245 108.395 15.305C108.95 15.32 109.602 15.455 110.352 15.71C111.102 15.965 111.83 16.385 112.535 16.97C113.255 17.555 113.847 18.3425 114.312 19.3325C114.792 20.3075 115.032 21.53 115.032 23C115.032 25.1 114.665 26.8175 113.93 28.1525C113.21 29.4725 112.28 30.4475 111.14 31.0775C110.015 31.6925 108.845 32 107.63 32H97.3696ZM105.47 30.7625H106.235C106.655 30.7625 107.052 30.4775 107.427 29.9075C107.802 29.3225 108.11 28.4675 108.35 27.3425C108.605 26.2025 108.732 24.7925 108.732 23.1125C108.732 21.2525 108.62 19.805 108.395 18.77C108.17 17.72 107.87 16.9925 107.495 16.5875C107.12 16.1675 106.715 15.9575 106.28 15.9575H105.47V30.7625ZM105.47 14.72H106.28C106.76 14.72 107.157 14.495 107.472 14.045C107.787 13.58 108.02 12.8375 108.17 11.8175C108.32 10.7825 108.395 9.4175 108.395 7.7225C108.395 6.1625 108.29 4.955 108.08 4.1C107.87 3.23 107.592 2.6225 107.247 2.2775C106.902 1.9175 106.535 1.7375 106.145 1.7375H105.47V14.72ZM116.116 32V30.7625H118.141V1.7375H116.116V0.499998H126.264V1.7375H124.171V30.7625H125.026C125.776 30.7625 126.399 30.455 126.894 29.84C127.404 29.225 127.786 28.415 128.041 27.41C128.296 26.39 128.424 25.28 128.424 24.08H129.684V32H116.116ZM139.786 32.495C138.196 32.495 136.771 31.865 135.511 30.605C134.251 29.345 133.261 27.515 132.541 25.115C131.821 22.7 131.461 19.76 131.461 16.295C131.461 12.815 131.821 9.8675 132.541 7.4525C133.261 5.0225 134.251 3.1775 135.511 1.9175C136.771 0.642499 138.196 0.00499886 139.786 0.00499886C141.391 0.00499886 142.824 0.642499 144.084 1.9175C145.359 3.1775 146.364 5.0225 147.099 7.4525C147.834 9.8675 148.201 12.815 148.201 16.295C148.201 19.76 147.834 22.7 147.099 25.115C146.364 27.515 145.359 29.345 144.084 30.605C142.824 31.865 141.391 32.495 139.786 32.495ZM139.786 31.2575C140.176 31.2575 140.491 30.935 140.731 30.29C140.986 29.63 141.189 28.6625 141.339 27.3875C141.489 26.1125 141.594 24.5525 141.654 22.7075C141.714 20.8475 141.744 18.71 141.744 16.295C141.744 13.88 141.714 11.7425 141.654 9.8825C141.594 8.0225 141.489 6.455 141.339 5.18C141.189 3.89 140.986 2.915 140.731 2.255C140.491 1.58 140.176 1.2425 139.786 1.2425C139.396 1.2425 139.081 1.58 138.841 2.255C138.601 2.915 138.414 3.89 138.279 5.18C138.144 6.455 138.046 8.0225 137.986 9.8825C137.941 11.7425 137.919 13.88 137.919 16.295C137.919 18.71 137.941 20.8475 137.986 22.7075C138.046 24.5525 138.144 26.1125 138.279 27.3875C138.414 28.6625 138.601 29.63 138.841 30.29C139.081 30.935 139.396 31.2575 139.786 31.2575ZM159.506 32.45C157.841 32.45 156.341 31.8875 155.006 30.7625C153.671 29.6375 152.613 27.8825 151.833 25.4975C151.068 23.1125 150.686 20.045 150.686 16.295C150.686 12.845 151.136 9.9125 152.036 7.4975C152.936 5.0825 154.091 3.2375 155.501 1.9625C156.911 0.687499 158.373 0.0499983 159.888 0.0499983C160.998 0.0499983 161.988 0.334998 162.858 0.904998C163.728 1.475 164.411 2.2325 164.906 3.1775C165.401 4.1225 165.648 5.165 165.648 6.305C165.648 7.265 165.446 8.045 165.041 8.645C164.636 9.23 164.028 9.5225 163.218 9.5225C162.348 9.5225 161.726 9.23 161.351 8.645C160.976 8.06 160.788 7.34 160.788 6.485C160.788 5.915 160.923 5.4425 161.193 5.0675C161.463 4.6775 161.726 4.31 161.981 3.965C162.251 3.62 162.386 3.2225 162.386 2.7725C162.386 2.4125 162.198 2.0675 161.823 1.7375C161.448 1.4075 161.006 1.2425 160.496 1.2425C159.791 1.2425 159.206 1.715 158.741 2.66C158.291 3.59 157.938 4.82 157.683 6.35C157.428 7.865 157.248 9.5 157.143 11.255C157.038 12.995 156.986 14.675 156.986 16.295C156.986 18.665 157.046 20.7725 157.166 22.6175C157.286 24.4475 157.451 26 157.661 27.275C157.886 28.535 158.148 29.495 158.448 30.155C158.763 30.8 159.123 31.1225 159.528 31.1225C159.738 31.1225 159.896 31.085 160.001 31.01C160.121 30.92 160.218 30.8225 160.293 30.7175V18.995H158.741V17.7575H167.628V18.995H165.783V32H164.478C164.448 31.955 164.321 31.88 164.096 31.775C163.886 31.655 163.571 31.595 163.151 31.595C162.791 31.595 162.438 31.67 162.093 31.82C161.763 31.955 161.396 32.09 160.991 32.225C160.586 32.375 160.091 32.45 159.506 32.45Z" fill="black"/>
</svg>
